<svg width="444" height="192" viewBox="0 0 444 192" fill="none" xmlns="http://www.w3.org/2000/svg">
<rect width="444" height="192" fill="white"/>
<g clip-path="url(#clip0_60:18)">
<path d="M104.981 119.119V73.6514H112.027V90.9358C113.238 89.3945 114.89 88.0734 116.871 87.0826C118.963 86.0917 121.055 85.5413 123.257 85.5413C126.78 85.5413 129.642 86.5321 131.844 88.5138C134.046 90.4954 135.147 93.2477 135.147 96.8807V119.009H128.101V99.0826C128.101 96.8807 127.44 95.1193 126.119 93.9082C124.798 92.6972 123.036 92.0367 120.945 92.0367C118.523 92.0367 116.431 92.9174 114.67 94.789C112.908 96.6605 112.027 98.9725 112.027 101.835V119.229H104.981V119.119Z" fill="#004495"/>
<path d="M182.155 119.119V86.5322H189.201V90.9359C190.302 89.3946 191.843 88.0735 193.825 87.0827C195.807 86.0918 197.898 85.5414 200.21 85.5414C203.623 85.5414 206.486 86.5322 208.577 88.5139C210.669 90.4955 211.77 93.2478 211.77 96.8808V119.009H204.724V99.0827C204.724 94.4588 201.972 91.9267 197.678 91.9267C195.256 91.9267 193.275 92.8074 191.623 94.679C189.972 96.5506 189.201 98.8625 189.201 101.725V119.119H182.155Z" fill="#004495"/>
<path d="M225.862 102.826C225.862 105.908 226.743 108.44 228.724 110.532C230.596 112.624 233.128 113.725 236.211 113.725C239.293 113.725 241.715 112.624 243.587 110.532C245.458 108.44 246.339 105.798 246.339 102.826C246.339 99.7432 245.458 97.2111 243.587 95.1194C241.715 93.0276 239.293 91.9267 236.211 91.9267C233.128 91.9267 230.706 93.0276 228.724 95.1194C226.853 97.2111 225.862 99.7432 225.862 102.826ZM221.128 93.7983C224.211 88.5139 229.495 85.5414 235.55 85.5414C240.174 85.5414 244.027 87.4129 246.119 90.0551V86.5322H253.165V119.119H246.119V115.596C243.257 118.459 240.174 120.11 235.33 120.11C230.926 120.11 226.853 118.349 223.88 115.376C220.908 112.404 218.926 107.89 218.926 102.826C218.926 99.523 219.697 96.4405 221.128 93.7983Z" fill="#004495"/>
<path d="M330.669 73.6514H323.623V119.119H330.669V73.6514Z" fill="#004495"/>
<path d="M339.697 86.5321H346.743V106.569C346.743 111.193 349.495 113.725 353.789 113.725C356.211 113.725 358.192 112.844 359.844 111.083C361.495 109.321 362.266 106.899 362.266 104.037V86.5321H369.311V119.119H362.266V114.716C361.165 116.257 359.623 117.578 357.532 118.569C355.55 119.56 353.458 120 351.256 120C347.844 120 345.091 119.009 342.889 116.917C340.798 114.826 339.697 111.963 339.697 108.33V86.5321V86.5321Z" fill="#004495"/>
<path d="M384.944 102.826C384.944 105.908 385.935 108.44 387.807 110.532C389.788 112.624 392.32 113.725 395.403 113.725C398.485 113.725 401.018 112.624 402.999 110.532C404.981 108.44 405.972 105.908 405.972 102.826C405.972 99.7431 404.981 97.211 402.999 95.1193C401.018 93.0275 398.485 91.9266 395.403 91.9266C392.32 91.9266 389.788 93.0275 387.807 95.1193C385.935 97.211 384.944 99.7431 384.944 102.826ZM378.229 119.119V73.6514H385.274V90.4954C386.485 89.0642 388.027 87.9633 390.118 86.9725C392.1 86.0917 394.302 85.5413 396.614 85.5413C401.128 85.5413 405.201 87.3027 408.173 90.1651C411.146 93.1376 412.907 97.5413 412.907 102.716C412.907 107.78 411.366 111.853 408.284 115.156C405.201 118.349 401.238 120 396.614 120C391.99 120 388.027 118.018 385.384 115.266V119.009H378.229V119.119Z" fill="#004495"/>
<path d="M52.3573 87.0826L58.8527 102.055H45.8619L52.3573 87.0826ZM50.4858 74.7523L30.9995 119.119H38.4858L42.2289 110.532L42.9995 108.661H61.8252L62.5958 110.532L66.2289 119.119H73.7151L54.339 74.7523H50.4858Z" fill="#004495"/>
<path d="M96.7247 111.963C95.0734 113.284 93.3119 113.945 91.3302 113.945C90.3394 113.945 89.4587 113.615 88.688 112.954C87.9174 112.294 87.477 111.193 87.477 109.982V92.5872H96.6146V86.5321H87.477V74.7523H80.5412V86.5321H73.6055V92.5872H80.5412V109.872C80.5412 113.174 81.422 115.706 83.1835 117.358C84.9449 119.119 87.1468 119.89 89.899 119.89C92.3211 119.89 94.633 119.339 96.7247 118.239L97.3853 117.908V111.853H96.7247V111.963Z" fill="#004495"/>
<path d="M149.458 99.633C150.009 96.8807 151.22 94.789 152.981 93.3578C154.743 91.9266 156.724 91.156 158.816 91.156C161.238 91.156 163.33 91.9266 165.091 93.4679C166.853 95.0092 167.844 96.9908 168.174 99.5229H149.458V99.633ZM174.999 102.055C174.999 95.8899 172.467 90.8257 167.513 87.8532C164.981 86.422 162.119 85.6514 158.816 85.6514C154.302 85.6514 150.119 87.5229 147.146 90.6055C144.174 93.578 142.302 98.0917 142.302 102.936C142.302 106.128 143.073 108.991 144.614 111.633C146.155 114.275 148.247 116.367 150.889 117.908C153.532 119.45 156.504 120.22 159.697 120.22C164.321 120.22 168.504 118.899 172.357 116.367L172.688 116.147V109.321H171.917C168.064 112.734 164.431 113.945 160.027 113.945C157.385 113.945 154.963 113.174 152.981 111.633C150.999 110.092 149.678 107.78 149.348 104.697H175.11V102.055H174.999Z" fill="#004495"/>
<path d="M301.825 78.6055C306.449 78.6055 310.743 80.367 314.816 83.8899H315.697V76.0734L315.147 75.7431C311.183 73.211 307.33 72 301.825 72C298.523 72 295.33 72.6606 292.468 73.7615C289.495 74.9725 286.963 76.6239 284.761 78.7156C282.559 80.8073 280.908 83.3394 279.587 86.3119C278.376 89.2844 277.715 92.4771 277.715 95.8899C277.715 99.3028 278.376 102.495 279.587 105.578C280.908 108.55 282.669 111.193 284.761 113.284C286.963 115.376 289.495 117.028 292.468 118.239C295.44 119.45 298.523 120 301.825 120C304.578 120 307 119.67 308.981 119.119C311.073 118.459 313.055 117.578 315.036 116.367L315.587 116.037V108.22H314.706C310.633 111.853 306.339 113.615 301.715 113.615C296.871 113.615 292.908 111.963 289.825 108.771C286.743 105.468 285.202 101.284 285.202 96.2202C285.202 91.0459 286.743 86.9725 289.825 83.6697C293.018 80.2569 296.981 78.6055 301.825 78.6055Z" fill="#004495"/>
</g>
<defs>
<clipPath id="clip0_60:18">
<rect width="381.908" height="48" fill="white" transform="translate(31 72)"/>
</clipPath>
</defs>
</svg>
