<svg width="31" height="31" viewBox="0 0 31 31" fill="none" xmlns="http://www.w3.org/2000/svg">
<path fill-rule="evenodd" clip-rule="evenodd" d="M25.5699 1.75368C26.7415 0.582107 28.641 0.582107 29.8126 1.75368C30.9841 2.92525 30.9841 4.82475 29.8126 5.99632L20.1488 15.66L30.1178 25.629C31.2894 26.8006 31.2894 28.7001 30.1178 29.8717C28.9463 31.0433 27.0468 31.0432 25.8752 29.8717L15.9062 19.9027L5.93725 29.8716C4.76567 31.0432 2.86618 31.0432 1.69461 29.8716C0.523033 28.7001 0.523034 26.8006 1.69461 25.629L11.6636 15.66L1.99987 5.99635C0.828292 4.82478 0.828292 2.92528 1.99987 1.75371C3.17144 0.582137 5.07093 0.582137 6.24251 1.75371L15.9062 11.4174L25.5699 1.75368Z" fill="white"/>
</svg>
