<?xml version="1.0" encoding="utf-8"?>
<!-- Generator: Adobe Illustrator 23.0.3, SVG Export Plug-In . SVG Version: 6.00 Build 0)  -->
<svg version="1.1" id="Layer_1" xmlns="http://www.w3.org/2000/svg" xmlns:xlink="http://www.w3.org/1999/xlink" x="0px" y="0px"
	 width="346.9px" height="43.6px" viewBox="0 0 346.9 43.6" style="enable-background:new 0 0 346.9 43.6;" xml:space="preserve">
<style type="text/css">
	.st0{clip-path:url(#SVGID_2_);fill:#004495;}
</style>
<g>
	<defs>
		<rect id="SVGID_1_" y="0" width="346.9" height="43.6"/>
	</defs>
	<clipPath id="SVGID_2_">
		<use xlink:href="#SVGID_1_"  style="overflow:visible;"/>
	</clipPath>
	<path class="st0" d="M67.2,42.8V1.5h6.4v15.7c1.1-1.4,2.6-2.6,4.4-3.5c1.9-0.9,3.8-1.4,5.8-1.4c3.2,0,5.8,0.9,7.8,2.7
		c2,1.8,3,4.3,3,7.6v20.1h-6.4V24.6c0-2-0.6-3.6-1.8-4.7c-1.2-1.1-2.8-1.7-4.7-1.7c-2.2,0-4.1,0.8-5.7,2.5c-1.6,1.7-2.4,3.8-2.4,6.4
		v15.8H67.2z"/>
	<path class="st0" d="M137.3,42.8V13.2h6.4v4c1-1.4,2.4-2.6,4.2-3.5c1.8-0.9,3.7-1.4,5.8-1.4c3.1,0,5.7,0.9,7.6,2.7
		c1.9,1.8,2.9,4.3,2.9,7.6v20.1h-6.4V24.6c0-4.2-2.5-6.5-6.4-6.5c-2.2,0-4,0.8-5.5,2.5c-1.5,1.7-2.2,3.8-2.2,6.4v15.8H137.3z"/>
	<path class="st0" d="M177,28c0,2.8,0.8,5.1,2.6,7c1.7,1.9,4,2.9,6.8,2.9c2.8,0,5-1,6.7-2.9c1.7-1.9,2.5-4.3,2.5-7
		c0-2.8-0.8-5.1-2.5-7c-1.7-1.9-3.9-2.9-6.7-2.9c-2.8,0-5,1-6.8,2.9C177.9,22.9,177,25.2,177,28 M172.7,19.8
		c2.8-4.8,7.6-7.5,13.1-7.5c4.2,0,7.7,1.7,9.6,4.1v-3.2h6.4v29.6h-6.4v-3.2c-2.6,2.6-5.4,4.1-9.8,4.1c-4,0-7.7-1.6-10.4-4.3
		c-2.7-2.7-4.5-6.8-4.5-11.4C170.7,25,171.4,22.2,172.7,19.8"/>
	<rect x="265.8" y="1.5" class="st0" width="6.4" height="41.3"/>
	<path class="st0" d="M280.4,13.2h6.4v18.2c0,4.2,2.5,6.5,6.4,6.5c2.2,0,4-0.8,5.5-2.4c1.5-1.6,2.2-3.8,2.2-6.4V13.2h6.4v29.6h-6.4
		v-4c-1,1.4-2.4,2.6-4.3,3.5c-1.8,0.9-3.7,1.3-5.7,1.3c-3.1,0-5.6-0.9-7.6-2.8c-1.9-1.9-2.9-4.5-2.9-7.8V13.2z"/>
	<path class="st0" d="M321.5,28c0,2.8,0.9,5.1,2.6,7c1.8,1.9,4.1,2.9,6.9,2.9c2.8,0,5.1-1,6.9-2.9c1.8-1.9,2.7-4.2,2.7-7
		c0-2.8-0.9-5.1-2.7-7c-1.8-1.9-4.1-2.9-6.9-2.9c-2.8,0-5.1,1-6.9,2.9C322.4,22.9,321.5,25.2,321.5,28 M315.4,42.8V1.5h6.4v15.3
		c1.1-1.3,2.5-2.3,4.4-3.2c1.8-0.8,3.8-1.3,5.9-1.3c4.1,0,7.8,1.6,10.5,4.2c2.7,2.7,4.3,6.7,4.3,11.4c0,4.6-1.4,8.3-4.2,11.3
		c-2.8,2.9-6.4,4.4-10.6,4.4c-4.2,0-7.8-1.8-10.2-4.3v3.4H315.4z"/>
	<path class="st0" d="M19.4,13.7l5.9,13.6H13.5L19.4,13.7z M17.7,2.5L0,42.8v0h6.8l3.4-7.8l0.7-1.7H28l0.7,1.7l3.3,7.8h6.8L21.2,2.5
		H17.7z"/>
	<path class="st0" d="M59.7,36.3c-1.5,1.2-3.1,1.8-4.9,1.8c-0.9,0-1.7-0.3-2.4-0.9c-0.7-0.6-1.1-1.6-1.1-2.7V18.7h8.3v-5.5h-8.3V2.5
		H45v10.7h-6.3v5.5H45v15.7c0,3,0.8,5.3,2.4,6.8c1.6,1.6,3.6,2.3,6.1,2.3c2.2,0,4.3-0.5,6.2-1.5l0.6-0.3v-5.5H59.7z"/>
	<path class="st0" d="M107.6,25.1c0.5-2.5,1.6-4.4,3.2-5.7c1.6-1.3,3.4-2,5.3-2c2.2,0,4.1,0.7,5.7,2.1c1.6,1.4,2.5,3.2,2.8,5.5
		H107.6z M130.8,27.3c0-5.6-2.3-10.2-6.8-12.9c-2.3-1.3-4.9-2-7.9-2c-4.1,0-7.9,1.7-10.6,4.5c-2.7,2.7-4.4,6.8-4.4,11.2
		c0,2.9,0.7,5.5,2.1,7.9c1.4,2.4,3.3,4.3,5.7,5.7c2.4,1.4,5.1,2.1,8,2.1c4.2,0,8-1.2,11.5-3.5l0.3-0.2v-6.2H128
		c-3.5,3.1-6.8,4.2-10.8,4.2c-2.4,0-4.6-0.7-6.4-2.1c-1.8-1.4-3-3.5-3.3-6.3h23.4V27.3z"/>
	<path class="st0" d="M246,6c4.2,0,8.1,1.6,11.8,4.8h0.8V3.7l-0.5-0.3C254.5,1.1,251,0,246,0c-3,0-5.9,0.6-8.5,1.6
		c-2.7,1.1-5,2.6-7,4.5c-2,1.9-3.5,4.2-4.7,6.9c-1.1,2.7-1.7,5.6-1.7,8.7s0.6,6,1.7,8.8c1.2,2.7,2.8,5.1,4.7,7c2,1.9,4.3,3.4,7,4.5
		c2.7,1.1,5.5,1.6,8.5,1.6c2.5,0,4.7-0.3,6.5-0.8c1.9-0.6,3.7-1.4,5.5-2.5v0l0.5-0.3v-7.1v0h-0.8c-3.7,3.3-7.6,4.9-11.8,4.9
		c-4.4,0-8-1.5-10.8-4.4c-2.8-3-4.2-6.8-4.2-11.4c0-4.7,1.4-8.4,4.2-11.4C238,7.5,241.6,6,246,6"/>
</g>
</svg>
