<svg width="52" height="43" viewBox="0 0 52 43" fill="none" xmlns="http://www.w3.org/2000/svg">
<g clip-path="url(#clip0)">
<path d="M46.1506 10.7092C46.1817 11.1604 46.1817 11.6116 46.1817 12.067C46.1817 25.9423 35.6188 41.9448 16.3039 41.9448V41.9365C10.5983 41.9448 5.01112 40.3105 0.207886 37.2289C1.03754 37.3287 1.87135 37.3786 2.70723 37.3807C7.43562 37.3849 12.0288 35.7983 15.7488 32.8769C11.2553 32.7916 7.31502 29.8619 5.9385 25.5847C7.51255 25.8883 9.13443 25.8259 10.6794 25.4038C5.78048 24.414 2.25602 20.1098 2.25602 15.1111C2.25602 15.0654 2.25602 15.0217 2.25602 14.9781C3.71571 15.7911 5.35005 16.2423 7.02183 16.2922C2.40781 13.2086 0.985553 7.0704 3.77185 2.27132C9.10323 8.83158 16.9693 12.8197 25.4135 13.2418C24.5672 9.5947 25.7233 5.7729 28.4513 3.20909C32.6807 -0.766577 39.3325 -0.562803 43.3081 3.66446C45.6598 3.20077 47.9138 2.33785 49.9765 1.11521C49.1926 3.54594 47.552 5.61071 45.3604 6.92277C47.4418 6.67741 49.4754 6.12015 51.3905 5.2697C49.9807 7.3823 48.2049 9.2225 46.1506 10.7092Z" fill="white"/>
</g>
<defs>
<clipPath id="clip0">
<rect width="51.5672" height="42.4182" fill="white" transform="translate(0 0.0444336)"/>
</clipPath>
</defs>
</svg>
